<svg width="198" height="287" viewBox="0 0 198 287" fill="none" xmlns="http://www.w3.org/2000/svg">
<path d="M47.0696 107.468C51.7828 120.231 39.7322 132.343 30.1132 141.967C9.51269 162.573 -5.20496 192.292 1.74238 220.589C7.24302 242.993 25.8266 260.769 47.3445 269.09C68.8623 277.411 92.9128 277.207 115.532 272.666C126.703 270.421 137.803 267.14 149.197 267.161C160.592 267.182 172.737 271.17 179.201 280.555C180.523 282.473 181.664 284.659 183.668 285.849C189.31 289.2 195.75 282.103 196.862 275.637C200.382 255.155 180.766 236.548 160.246 233.26C139.725 229.969 119.197 237.586 99.8087 245.07C109.785 236.379 122.095 225.358 123.749 212.229C125.65 197.149 114.025 181.637 99.0178 179.229C108.355 169.306 110.111 152.347 108.774 138.792C107.436 125.233 101.807 112.445 95.0121 100.636L47.0696 107.468Z" fill="#EBE4D4"/>
<path d="M48.4436 150.214C57.2082 139.76 47.2556 131.69 41.7117 129.358C35.6398 137.41 30.8878 140.05 22.308 150.742C12.6717 161.962 5.01581 178.858 6.07209 178.858C33.3956 148.366 37.4877 163.282 48.4436 150.214Z" fill="#F08A30"/>
<path d="M99.3082 179.754C103.141 154.998 85.6828 126.764 62.4135 117.479C74.1078 114.723 90.7769 113.199 102.471 110.442C104.339 110.002 106.396 109.584 108.099 110.467C109.64 111.27 110.491 112.938 111.209 114.519C116.126 125.342 119.455 137.265 118.044 149.07C116.632 160.876 110.214 175.023 99.3082 179.754Z" fill="#D4D0C4"/>
<path d="M83.6024 136.518C82.0265 136.518 80.4482 136.455 78.8688 136.317C66.0012 135.205 54.4554 129.598 46.0881 121.963L51.2935 121.368C58.7723 125.268 67.7162 127.606 77.0652 127.606C77.5323 127.606 77.9994 127.598 78.4682 127.588C81.4514 130.249 84.205 133.223 86.676 136.437C85.6546 136.49 84.6288 136.518 83.6024 136.518Z" fill="#F08A30"/>
<path d="M86.6758 136.437C84.2048 133.223 81.4512 130.249 78.468 127.588C81.7828 127.503 85.1426 127.123 88.4981 126.416C97.0502 124.606 105.011 120.752 111.736 115.697C113.358 119.383 114.786 123.191 115.897 127.07C107.569 132.354 97.2959 135.86 86.6758 136.437Z" fill="#DCA371"/>
<path d="M50.0184 53.0565C45.9521 44.4854 39.9509 36.84 32.5918 30.8561C28.1411 27.234 22.2815 24.0907 16.8762 26.0161C12.9687 44.4185 17.6921 72.0255 29.4474 93.2051L50.0184 53.0565Z" fill="#EBE4D4"/>
<path d="M24.3919 66.2563C19.4358 55.4782 17.9582 43.1126 20.3264 31.4792C27.4047 37.6673 32.8331 45.7174 35.9388 54.5877C30.9531 58.076 26.8601 61.9866 24.3919 66.2563Z" fill="#E7AC78"/>
<path d="M90.1021 40.8982C88.722 31.5105 89.4636 21.82 92.2571 12.7561C93.9463 7.27205 97.0724 1.40427 102.636 -0.000188621C116.109 13.1328 127.518 38.7088 129.512 62.8486L90.1021 40.8982Z" fill="#FF9934"/>
<path d="M119.035 39.7124C114.515 37.1358 109.074 35.7173 102.906 35.2667C100.314 25.9037 100.272 15.8436 102.803 6.4594C111.73 15.3086 117.532 27.2412 119.035 39.7124Z" fill="#F08A30"/>
<path d="M132.001 57.7274C135.259 70.6105 134.69 84.891 127.432 98.0098C120.173 111.132 105.503 122.818 88.4985 126.416C72.0237 129.897 55.4767 125.423 44.3934 117.014C33.3101 108.608 27.0875 96.7145 23.4205 84.3806C22.2487 80.4347 21.3109 76.3269 22.1431 72.0889C25.6239 54.3659 58.3173 41.6448 77.5908 37.5616C105.108 31.7326 126.37 35.4602 132.001 57.7274Z" fill="#EBE4D4"/>
<path d="M132.001 57.7277C134.664 68.2629 134.768 79.7309 130.747 90.7378C125.234 82.9693 118.736 78.4883 110.938 75.3309C91.1487 67.316 74.89 60.6105 69.5369 39.5717C72.3838 38.7621 75.0998 38.0898 77.5905 37.5618C105.108 31.7328 126.37 35.4604 132.001 57.7277Z" fill="#FF9934"/>
<path d="M81.4684 92.7228C82.0527 94.0357 82.505 95.3874 82.9263 96.7531C83.1298 97.436 83.3276 98.1224 83.5001 98.8123C83.6754 99.5057 83.8356 100.203 83.9528 100.91C83.6557 100.255 83.4019 99.5902 83.1632 98.9143C82.9218 98.2455 82.7057 97.5627 82.4948 96.8833C82.0879 95.5141 81.7123 94.1378 81.4684 92.7228Z" fill="#202020"/>
<path d="M97.0275 95.1587C97.4734 96.8096 97.0641 98.6963 96.1007 100.21C95.139 101.73 93.5895 102.952 91.7581 103.424C89.9277 103.902 87.9791 103.582 86.4004 102.716C84.8234 101.857 83.5524 100.407 83.144 98.7455C84.2194 100.051 85.5528 100.935 86.9812 101.442C88.4064 101.945 89.9288 102.054 91.3125 101.699C92.6958 101.343 93.9757 100.509 94.9785 99.3756C95.9838 98.2422 96.7219 96.8236 97.0275 95.1587Z" fill="#202020"/>
<path d="M83.9209 100.182C84.1828 101.681 83.6639 103.318 82.685 104.582C81.7068 105.852 80.2334 106.813 78.5685 107.098C76.9042 107.387 75.1942 106.968 73.8489 106.095C72.5046 105.226 71.4712 103.856 71.2227 102.353C72.1551 103.533 73.2878 104.349 74.5121 104.86C75.7335 105.367 77.0447 105.55 78.2679 105.342C79.4914 105.131 80.6688 104.525 81.6526 103.642C82.6389 102.755 83.4355 101.604 83.9209 100.182Z" fill="#202020"/>
<path d="M79.4023 85.2075C79.4023 85.2075 83.508 79.1461 88.6602 79.9909C93.812 80.8357 86.0491 90.9802 81.2429 93.0042C76.4371 95.0282 65.3964 88.6077 68.6883 85.6263C71.9802 82.6414 79.4023 85.2075 79.4023 85.2075Z" fill="#B96A41"/>
<path d="M46.6161 88.3701C44.3068 83.6004 46.3014 77.8641 51.07 75.5545C55.8386 73.2449 61.5759 75.2385 63.8858 80.008C66.1957 84.7776 64.2017 90.5137 59.4316 92.8237C54.6629 95.1334 48.9254 93.1398 46.6161 88.3701Z" fill="white"/>
<path d="M49.2073 87.1152C47.5912 83.7783 48.9869 79.7617 52.3245 78.1435C55.6631 76.5282 59.6799 77.9259 61.2947 81.2632C62.9126 84.5996 61.5151 88.6167 58.1787 90.2346C54.8401 91.8498 50.824 90.4553 49.2073 87.1152Z" fill="#353233"/>
<path d="M55.0207 77.1074C56.8083 76.2394 58.9597 76.9891 59.8271 78.7748C60.6924 80.5645 59.9435 82.7184 58.1562 83.583C56.3675 84.448 54.2163 83.7015 53.3501 81.9121C52.4839 80.1227 53.2319 77.9724 55.0207 77.1074Z" fill="white"/>
<path d="M91.8735 74.6968C89.5636 69.9272 91.5606 64.1903 96.3271 61.8813C101.097 59.5714 106.833 61.5653 109.143 66.3349C111.453 71.1044 109.459 76.8405 104.689 79.1504C99.9225 81.4594 94.1834 79.4663 91.8735 74.6968Z" fill="white"/>
<path d="M94.4649 73.4413C92.847 70.1049 94.2446 66.0878 97.5819 64.4729C100.921 62.8541 104.935 64.2526 106.553 67.589C108.168 70.9263 106.774 74.9425 103.434 76.5613C100.097 78.1762 96.0807 76.7816 94.4649 73.4413Z" fill="#353233"/>
<path d="M100.279 63.4337C102.065 62.5693 104.218 63.3152 105.083 65.1049C105.948 66.8916 105.202 69.0445 103.412 69.9098C101.626 70.7742 99.4726 70.0283 98.6073 68.2386C97.739 66.4499 98.4889 64.299 100.279 63.4337Z" fill="white"/>
<path d="M103.692 59.7127C95.4825 57.0798 87.9931 65.2003 89.771 72.0713C90.2166 66.5309 94.6507 61.9901 99.4386 61.3952C104.194 60.7933 109.637 64.0739 111.436 69.3644C111.449 65.5418 108.435 61.2298 103.692 59.7127Z" fill="#202020"/>
<path d="M45.4774 89.3716C41.8124 83.9262 45.1254 73.6691 54.4733 73.0742C59.4723 72.9228 63.7396 75.9887 64.9952 79.5896C60.2235 73.5564 49.7759 72.8771 46.0789 81.5608C45.0701 83.9297 44.754 86.6647 45.4774 89.3716Z" fill="#202020"/>
<path d="M74.9022 248.706C62.6404 248.706 48.1019 245.887 36.7821 235.274C36.7821 235.274 51.9739 240.842 71.2143 240.842C85.209 240.842 101.344 237.9 115.339 227.72C116.502 226.875 117.619 226.016 118.702 225.151C113.814 232.74 106.316 239.399 99.8087 245.07C99.8087 245.07 88.8229 248.706 74.9022 248.706Z" fill="#F08A30"/>
<path d="M99.3775 179.289C99.3556 179.286 99.3342 179.282 99.312 179.279C99.3113 179.173 99.3092 179.053 99.3057 178.916C99.3542 178.863 99.4025 178.81 99.4507 178.758C99.4275 178.934 99.4032 179.113 99.3775 179.289Z" fill="#F0B88C"/>
<path d="M99.3084 179.754C99.3084 179.754 99.3151 179.588 99.3123 179.279C99.3344 179.282 99.3559 179.286 99.3777 179.289C99.3555 179.444 99.3323 179.599 99.3084 179.754ZM99.3059 178.916C99.2052 175.217 97.8441 160.035 82.6903 149.165C82.6903 149.165 91.3769 151.052 96.6645 160.116C98.4611 163.196 99.3418 166.448 99.722 169.405C99.9367 172.542 99.8561 175.674 99.4509 178.758C99.4027 178.811 99.3545 178.863 99.3059 178.916Z" fill="#F08A30"/>
<path d="M99.308 179.754C99.3319 179.599 99.3552 179.444 99.3773 179.289C99.403 179.113 99.4273 178.934 99.4506 178.758C99.8557 175.674 99.9363 172.542 99.7216 169.405C100.46 175.146 99.308 179.754 99.308 179.754Z" fill="#DCA371"/>
<path d="M28.2492 170.317C24.3044 170.848 20.8668 173.555 18.8024 176.959C16.7375 180.363 15.9142 184.393 15.7263 188.367C15.3063 197.244 17.9808 206.238 23.1829 213.443C24.0488 214.643 25.0411 215.84 26.4076 216.41C29.326 217.621 32.4929 215.562 34.9797 213.612C40.366 209.388 45.786 205.132 50.3098 199.993C54.8337 194.858 58.4582 188.729 59.6222 181.985C60.2248 178.49 59.8014 174.227 56.7461 172.429C54.6436 171.19 52.005 171.566 49.6009 171.978C46.2387 172.552 40.9179 175.794 37.8126 175.206C34.0973 174.509 33.3253 169.637 28.2492 170.317Z" fill="#353233"/>
<path d="M75.405 89.7729C73.1779 89.7729 69.8167 88.2242 70.8593 86.9746C71.2163 86.5451 71.9372 86.3586 72.7703 86.3586C74.8756 86.3586 77.6951 87.5448 77.1537 88.988C76.9446 89.5476 76.2583 89.7729 75.405 89.7729Z" fill="#D3AB8F"/>
<path d="M124.078 270.993C101.639 275.612 89.1427 276.184 82.7628 275.612C71.2525 275.847 54.9111 271.222 48.1792 268.881C51.9192 269.585 64.0718 270.57 82.7628 268.881C106.126 266.769 105.07 251.589 121.174 246.705C143.373 239.972 153.338 259.245 156.55 267.561C150.302 266.857 142.294 266.373 124.078 270.993Z" fill="#353233"/>
<path d="M172.522 255.417C172.522 239.049 150.874 233.945 145.066 232.845C159.322 231.895 168.166 235.045 170.938 236.541C178.594 240.061 194.434 250.533 196.546 264.261C199.185 281.421 192.19 284.985 187.57 286.569C183.874 287.836 180.75 283.401 179.65 281.025C186.646 259.641 171.73 268.221 172.522 255.417Z" fill="#F08A30"/>
</svg>
