<svg width="700" height="1000" viewBox="0 0 700 1000" fill="none" xmlns="http://www.w3.org/2000/svg">
<path d="M367.169 845.101C367.169 845.101 307.435 864.649 315.399 892.001C323.365 919.364 422.922 860.742 422.922 860.742L367.169 845.101Z" fill="#5C5C68"/>
<path d="M451.077 916.499C494.633 905.569 556.132 867.898 578.232 829.472C600.331 791.046 603.76 742.793 587.308 701.73C561.908 638.338 497.249 600.536 439.592 562.601C381.937 524.679 302.102 486.913 298.392 418.894H128.055C64.9326 514.563 69.3611 650.384 141.337 739.832C159.013 761.79 180.095 781.098 196.182 804.219C212.268 827.327 223.215 855.9 217.019 883.227C217.019 883.227 176.018 892.001 180 915.445C183.983 938.9 219.823 923.271 219.823 923.271C219.823 923.271 199.912 942.808 219.823 954.53C239.735 966.252 279.559 946.715 295.487 919.364C311.417 892.001 315.399 778.665 315.399 778.665C315.399 778.665 315.399 864.65 391.063 876.372C391.063 876.372 327.346 895.908 327.346 927.179C327.346 958.437 420.994 924.05 451.077 916.499Z" fill="#6A6977"/>
<path d="M298.392 418.895H128.055C120.568 430.245 114.065 442.171 108.479 454.504C131.433 466.226 160.695 474.556 197.922 477.744C247.391 481.987 284.195 474.735 311.878 461.395C304.164 448.571 299.246 434.548 298.392 418.895Z" fill="#5C5C68"/>
<path d="M547.311 501.367C519.644 457.512 491.912 410.852 489.35 359.326C487.345 319.018 501.815 278.147 528.856 247.74C540.979 234.112 556.153 222.235 574.098 218.088C592.042 213.941 612.989 219.035 623.756 233.717C637.169 252.007 631.081 277.98 619.489 297.444C607.897 316.897 591.385 333.701 583.356 354.819C564.799 403.636 596.283 455.282 619.098 502.326C635.922 537 648.485 573.676 656.43 611.286C665.204 652.828 667.849 698.074 648.024 735.781C626.077 777.502 580.869 803.151 539.532 823.371C542.648 769.76 596.192 738.262 607.57 685.945C622.227 618.538 581.857 556.129 547.311 501.367Z" fill="#6A6977"/>
<path d="M141.339 739.832C159.015 761.79 180.096 781.099 196.184 804.219C212.27 827.327 223.217 855.9 217.021 883.228C217.021 883.228 176.02 892.001 180.002 915.445C183.985 938.901 219.825 923.271 219.825 923.271L243.719 907.63C243.719 907.63 263.631 817.75 223.808 755.222C183.985 692.693 172.038 622.35 199.914 571.543C227.79 520.736 164.073 509.014 164.073 509.014L124.25 524.643C96.3741 594.987 89.752 675.721 141.339 739.832Z" fill="#5C5C68"/>
<path d="M223.808 755.221C223.808 755.221 168.055 665.329 195.931 594.986C223.808 524.643 203.897 497.292 164.073 485.57C124.25 473.836 80.4442 552.006 116.285 645.793C152.127 739.592 223.808 755.221 223.808 755.221Z" fill="#EBE4D4"/>
<path d="M391.065 876.372C391.065 876.372 323.366 880.279 315.401 778.665C307.436 677.064 426.906 641.886 426.906 641.886C426.906 641.886 335.312 692.693 335.312 766.943C335.312 841.194 391.065 876.372 391.065 876.372Z" fill="#5C5C68"/>
<path d="M286.066 154.408C298.69 125.811 317.893 100.042 341.828 79.5586C356.304 67.1775 375.547 56.1987 393.852 61.9158C409.028 121.892 396.382 213.054 359.477 283.913L286.066 154.408Z" fill="#6A6977"/>
<path d="M393.854 61.916L393.566 61.8321C369.808 65.8593 349.75 121.868 340.354 157.345L365.827 251.288C367.63 247.896 388.638 227.197 391.477 202.327C408.269 147.673 403.449 99.8384 393.854 61.916Z" fill="#ED9D7D"/>
<path d="M165.837 145.431C155.536 115.443 138.335 87.7565 115.886 65.0318C102.308 51.2964 83.7841 38.5796 64.7667 42.8345C44.2153 102.271 49.1214 195.579 80.3338 270.357L165.837 145.431Z" fill="#6A6977"/>
<path d="M64.7655 42.835L65.0635 42.7751C86.7031 51.5006 104.207 107.198 110.645 143.873L76.7346 236.81C75.2042 233.238 55.735 210.537 55.0144 185.14C42.7522 128.424 51.7717 80.4098 64.7655 42.835Z" fill="#ED9D7D"/>
<path d="M225.798 108.444C130.445 99.6705 66.5058 129.934 42.6116 210.046C23.4782 274.204 -6.04503 441.259 198.858 453.832C390.028 465.554 401.02 339.01 396.002 254.5C391.495 178.607 353.232 120.166 225.798 108.444Z" fill="#6A6977"/>
<path d="M84.7578 250.234C84.7578 229.618 101.787 212.91 122.794 212.91C143.801 212.91 160.83 229.618 160.83 250.234C160.83 270.849 143.801 287.569 122.794 287.569C101.787 287.569 84.7578 270.849 84.7578 250.234Z" fill="white"/>
<path d="M96.168 250.234C96.168 235.803 108.088 224.105 122.793 224.105C137.498 224.105 149.418 235.803 149.418 250.234C149.418 264.664 137.498 276.362 122.793 276.362C108.088 276.362 96.168 264.664 96.168 250.234Z" fill="#353233"/>
<path d="M134.205 225.039C142.083 225.039 148.468 231.308 148.468 239.038C148.468 246.769 142.083 253.038 134.205 253.038C126.328 253.038 119.941 246.769 119.941 239.038C119.941 231.308 126.328 225.039 134.205 225.039Z" fill="white"/>
<path d="M271.926 256.094C271.926 235.479 288.956 218.771 309.962 218.771C330.969 218.771 347.998 235.479 347.998 256.094C347.998 276.709 330.969 293.429 309.962 293.429C288.956 293.429 271.926 276.709 271.926 256.094Z" fill="white"/>
<path d="M283.338 256.094C283.338 241.663 295.258 229.965 309.963 229.965C324.668 229.965 336.588 241.663 336.588 256.094C336.588 270.524 324.668 282.222 309.963 282.222C295.258 282.222 283.338 270.524 283.338 256.094Z" fill="#353233"/>
<path d="M321.374 230.901C329.252 230.901 335.638 237.169 335.638 244.9C335.638 252.63 329.252 258.899 321.374 258.899C313.496 258.899 307.111 252.63 307.111 244.9C307.111 237.169 313.496 230.901 321.374 230.901Z" fill="white"/>
<path d="M197.922 458.207C294.553 466.489 342.953 430.952 369.162 391.771C326.089 362.059 274.189 322.902 256.794 262.938C241.596 210.549 245.545 149.794 248.155 111.093C241.012 110.038 233.567 109.151 225.798 108.444C221.223 108.012 216.73 107.737 212.279 107.533C212.596 164.201 205.715 260.481 159.392 307.309C123.267 343.817 79.7572 363.976 46.8984 374.847C67.9982 415.79 111.584 450.8 197.922 458.207Z" fill="#EBE4D4"/>
<path d="M198.024 458.674C294.655 466.956 343.055 431.418 369.263 392.238C326.191 362.525 274.29 323.369 256.896 263.405C241.698 211.016 245.646 150.261 248.256 111.56C241.114 110.505 233.669 109.618 225.9 108.911C221.325 108.479 216.831 108.204 212.381 108C212.697 164.668 205.816 260.948 159.493 307.775C123.369 344.283 79.8587 364.443 47 375.314C68.0998 416.257 111.685 451.267 198.024 458.674Z" fill="#EBE4D4"/>
<path d="M239.787 362.574C239.934 371.214 240.014 380.241 236.267 388.027C232.507 395.827 223.641 401.894 215.334 399.494C210.014 397.961 206.094 393.401 203.36 388.587C198.147 379.427 196.107 368.481 197.681 358.054C205.121 360.081 215.947 349.321 217.667 341.814C221.081 352.081 229.001 363.414 239.787 362.574Z" fill="#ED9D7D"/>
<path d="M259.96 352.16C240.96 370.827 218.2 349.494 220.614 333.094L214.521 332.16C211.801 348.214 205.441 358.574 189.387 359.614C175.867 360.707 164.894 344.68 164.507 330.387C161.467 348.787 177.427 372 201.467 362.414C208.814 359.507 213.694 353.854 216.854 346.534C219.854 353 225.027 358.28 230.921 361.32C249.614 371.094 267.867 355.067 270.907 334.614C268.534 341.294 264.894 347.467 259.96 352.16Z" fill="#202020"/>
<path d="M218.81 368.483L212.482 368.135L214.675 330.8L221.001 331.148L218.81 368.483Z" fill="#202020"/>
<path d="M174.504 347.736C177.087 350.828 180.1 353.357 183.332 355.49C186.53 357.672 190.005 359.35 193.541 360.764C200.706 363.449 208.286 364.803 216.001 365.139C223.715 365.486 231.387 364.791 238.768 362.765C242.417 361.663 246.032 360.296 249.417 358.415C252.833 356.581 256.066 354.316 258.925 351.475C257.204 355.143 254.344 358.235 251.199 360.92C247.983 363.545 244.342 365.714 240.458 367.356C232.636 370.532 224.058 371.743 215.715 371.359C207.371 370.988 198.942 369.034 191.443 365.187C187.727 363.197 184.299 360.716 181.338 357.815C178.451 354.867 175.886 351.535 174.504 347.736Z" fill="#202020"/>
<path d="M219.244 310.785C219.244 310.785 201.014 293.262 189.474 302.898C176.798 313.47 204.523 333.282 219.653 333.593C233.371 333.869 260.916 314.44 249.67 304.396C240.137 295.887 219.244 310.785 219.244 310.785Z" fill="#DA5D46"/>
<path d="M195.376 306.038C187.482 310.221 208.491 325.886 212.943 320.577C217.394 315.267 202.564 302.227 195.376 306.038Z" fill="#ED9D7D"/>
<path d="M94.3819 192.463C91.5936 182.886 130.223 161.192 138.187 170.972C146.153 180.741 98.3647 206.138 94.3819 192.463Z" fill="#BDACA5"/>
<path d="M347.344 201.596C350.724 192.199 313.518 168.24 304.959 177.517C296.401 186.782 342.517 215.008 347.344 201.596Z" fill="#BDACA5"/>
<path d="M60.5332 311.66C60.5332 303.018 70.7851 296.03 83.432 296.03C96.0777 296.03 106.33 303.018 106.33 311.66C106.33 320.289 96.0777 327.289 83.432 327.289C70.7851 327.289 60.5332 320.289 60.5332 311.66Z" fill="#ED9D7D"/>
<path d="M218.5 131.5C195.7 127.9 184 115 181 109C172.5 105 221 106.5 243.5 110.5C259.812 113.4 262 118 265 122.5C243.5 118.5 247 136 218.5 131.5Z" fill="#F08A30"/>
<path d="M319.383 321.427C319.383 312.798 329.635 305.798 342.282 305.798C354.927 305.798 365.179 312.798 365.179 321.427C365.179 330.057 354.927 337.057 342.282 337.057C329.635 337.057 319.383 330.057 319.383 321.427Z" fill="#ED9D7D"/>
<path d="M212.269 107.171C207.315 107.692 200.899 106.016 196.239 107.172C193.773 130.868 192.266 166.511 197.683 168.937C203.002 171.307 209.045 134.902 212.269 107.171Z" fill="#484854"/>
<path d="M232.527 108.929C226.466 108.929 225.092 107.621 216.389 107.621C213.923 131.317 212.525 168.269 217.941 170.695C223.26 173.065 229.303 136.66 232.527 108.929Z" fill="#484854"/>
<path d="M251.764 111.626C245.702 110.767 241.122 109.868 235.169 109.419C232.702 133.115 231.761 170.966 237.177 173.392C242.496 175.762 248.54 139.357 251.764 111.626Z" fill="#484854"/>
<path d="M230.286 557.551C257.932 522.435 315.634 504.504 347.967 499.58L364.455 512.862C318.094 514.954 275.444 540.685 245.928 566.454C235.205 575.817 221.48 568.736 230.286 557.551Z" fill="#484854"/>
<path d="M457.889 575.608C435.905 560.494 373.617 522.938 349.343 500.038C347.663 509.656 350.167 533.564 373.617 552.25C402.929 575.608 389.189 605.836 425.829 638.812C482.621 677.65 537.733 664.155 558.191 652.552C523.841 619.118 511.056 612.16 457.889 575.608Z" fill="#F08A30"/>
<path d="M353.11 644.237C381.189 608.233 440.129 589.292 472.544 584.31L493.154 598.508C446.423 600.636 400.606 627.278 369.311 653.661C358.403 662.857 344.336 655.487 353.11 644.237Z" fill="#484854"/>
<path d="M248.829 608.754C259.214 552.384 335.902 526.027 375.363 519.732L393.31 532.908C333.94 535.715 280.794 579.82 254.875 611.15C252.581 613.923 248.177 612.294 248.829 608.754Z" fill="#484854"/>
<path d="M367.97 697.986C379.267 641.676 465.203 613.459 505.978 607.21L524.756 621.866C463.229 624.661 401.739 669.338 373.983 700.512C371.613 703.174 367.269 701.481 367.97 697.986Z" fill="#484854"/>
<path d="M307.904 583.292C338.043 559.475 381.444 546.686 407.966 542.632L429.95 556.372C392.379 558.074 355.655 575.169 326.486 595.303C308.164 607.951 290.437 597.095 307.904 583.292Z" fill="#484854"/>
<path d="M431.23 670.701C462.319 646.634 507.25 633.728 533.917 629.652L549.031 643.624C511.897 645.306 476.69 661.955 448.683 681.719C430.493 694.556 413.626 684.329 431.23 670.701Z" fill="#484854"/>
</svg>
